<svg width="276" height="270" viewBox="0 0 276 270" fill="none" xmlns="http://www.w3.org/2000/svg">
<path d="M216.075 79.65C233.403 79.65 247.45 65.603 247.45 48.275C247.45 30.9471 233.403 16.9 216.075 16.9C198.747 16.9 184.7 30.9471 184.7 48.275C184.7 65.603 198.747 79.65 216.075 79.65Z" stroke="#C1C1C1" stroke-width="0.25" stroke-miterlimit="10" stroke-dasharray="2.99 2.99"/>
<path d="M72.925 51.075C66 53.525 59.1 56.5 54.25 61.175C49.4 65.85 46.975 72.575 49.875 78.2C53.775 85.725 66.075 90.1 66.15 98.25C66.2 104.075 59.5 108.55 52.75 110.65C46 112.775 38.525 113.525 32.4 116.625C23.15 121.3 18.8 130.35 17.025 139.05C15.175 148.075 15.925 158.35 23.85 164.875C33.7 173 49.975 172.1 63.925 170.35C82.525 168.025 101.05 165.325 119.575 162.6C160.15 156.675 200.75 150.7 241.35 144.75C245.7 144.1 250.225 143.4 253.775 141.275C260.8 137.025 261.4 128.25 257.3 121.975C253.2 115.7 245.675 111.45 238.175 107.775C230.675 104.1 222.75 100.6 217.125 95.15C211.5 89.7 208.7 81.65 212.975 75.45C216.575 70.2 224.325 67.4 227.7 62.05C232.15 55 227.025 46.025 218.975 41.525C210.925 37.025 109.575 38.175 72.925 51.075Z" fill="#F7F7F7"/>
<path d="M263.05 258.25H12.6C11.125 258.25 9.90002 257.025 9.90002 255.55V243.7C9.90002 242.225 11.125 241 12.6 241H263.05C264.525 241 265.75 242.225 265.75 243.7V255.55C265.75 257.025 264.525 258.25 263.05 258.25Z" fill="#D3D3D3"/>
<path d="M182.875 251.75H73.225C65.425 251.75 59.125 244.375 59.125 235.275C59.125 230.725 60.7 226.6 63.25 223.625C65.8 220.65 69.325 218.8 73.225 218.8H182.875V251.75Z" fill="#7E879F"/>
<path d="M108.35 221H210.5C210.65 221 210.775 221.125 210.775 221.275V249.25C210.775 249.4 210.65 249.525 210.5 249.525H108.35C101.325 249.525 95.6 243.825 95.6 236.775V233.75C95.6 226.7 101.3 221 108.35 221Z" fill="#F2F2F2"/>
<path d="M99.875 226.45C97.95 228.7 96.75 231.825 96.75 235.275C96.75 242.175 101.525 247.75 107.425 247.75H216.875V251.75H107.225C99.425 251.75 93.125 244.375 93.125 235.275C93.125 230.725 94.7 226.6 97.25 223.625C99.8 220.65 103.325 218.8 107.225 218.8H216.875V222.8H107.425C104.475 222.8 101.8 224.175 99.875 226.45Z" fill="black"/>
<path d="M108.625 243.225H206.95" stroke="#D3D3D3" stroke-width="0.5" stroke-miterlimit="10" stroke-linecap="round"/>
<path d="M108.625 238.225H206.95" stroke="#D3D3D3" stroke-width="0.5" stroke-miterlimit="10" stroke-linecap="round"/>
<path d="M108.625 233.225H206.95" stroke="#D3D3D3" stroke-width="0.5" stroke-miterlimit="10" stroke-linecap="round"/>
<path d="M108.625 228.225H206.95" stroke="#D3D3D3" stroke-width="0.5" stroke-miterlimit="10" stroke-linecap="round"/>
<path d="M98.8 218.775H203.4C210.825 218.775 216.85 213 216.85 205.875C216.85 202.3 215.35 199.075 212.9 196.75C210.475 194.425 207.1 192.975 203.375 192.975H98.8V218.775Z" fill="#FFD18D"/>
<path d="M171.075 194.725H72.425C72.3 194.725 72.2 194.825 72.2 194.95V216.8C72.2 216.925 72.3 217.025 72.425 217.025H171.075C177.15 217.025 182.075 212.1 182.075 206.025V205.725C182.075 199.65 177.15 194.725 171.075 194.725Z" fill="#F2F2F2"/>
<path d="M178 198.975C179.85 200.75 180.975 203.175 180.975 205.875C180.975 211.275 176.425 215.65 170.8 215.65H66.375V218.8H170.975C178.4 218.8 184.425 213.025 184.425 205.9C184.425 202.325 182.925 199.1 180.475 196.775C178.025 194.45 174.675 193 170.95 193H66.375V196.15H170.8C173.6 196.1 176.15 197.2 178 198.975Z" fill="#7E879F"/>
<path d="M169.65 214.4H75.825" stroke="#D3D3D3" stroke-width="0.5" stroke-miterlimit="10" stroke-linecap="round"/>
<path d="M169.65 209.4H75.825" stroke="#D3D3D3" stroke-width="0.5" stroke-miterlimit="10" stroke-linecap="round"/>
<path d="M169.65 204.4H75.825" stroke="#D3D3D3" stroke-width="0.5" stroke-miterlimit="10" stroke-linecap="round"/>
<path d="M169.65 199.4H75.825" stroke="#D3D3D3" stroke-width="0.5" stroke-miterlimit="10" stroke-linecap="round"/>
<path d="M182.875 192.975H73.225C65.425 192.975 59.125 185.6 59.125 176.5C59.125 171.95 60.7 167.825 63.25 164.85C65.8 161.875 69.325 160.025 73.225 160.025H182.875V192.975Z" fill="black"/>
<path d="M108.35 162.225H210.5C210.65 162.225 210.775 162.35 210.775 162.5V190.475C210.775 190.625 210.65 190.75 210.5 190.75H108.35C101.325 190.75 95.6 185.05 95.6 178V174.95C95.6 167.925 101.3 162.225 108.35 162.225Z" fill="#F2F2F2"/>
<path d="M99.875 167.675C97.95 169.925 96.75 173.05 96.75 176.5C96.75 183.4 101.525 188.975 107.425 188.975H216.875V192.975H107.225C99.425 192.975 93.125 185.6 93.125 176.5C93.125 171.95 94.7 167.825 97.25 164.85C99.8 161.875 103.325 160.025 107.225 160.025H216.875V164.025H107.425C104.475 164 101.8 165.4 99.875 167.675Z" fill="#7E879F"/>
<path d="M108.625 184.45H206.95" stroke="#D3D3D3" stroke-width="0.5" stroke-miterlimit="10" stroke-linecap="round"/>
<path d="M108.625 179.45H206.95" stroke="#D3D3D3" stroke-width="0.5" stroke-miterlimit="10" stroke-linecap="round"/>
<path d="M108.625 174.45H206.95" stroke="#D3D3D3" stroke-width="0.5" stroke-miterlimit="10" stroke-linecap="round"/>
<path d="M108.625 169.45H206.95" stroke="#D3D3D3" stroke-width="0.5" stroke-miterlimit="10" stroke-linecap="round"/>
<path d="M169.625 223.55L163.875 218.775L157.875 223.55V204.2H169.625V223.55Z" fill="#7E879F"/>
<path d="M102.625 155.025C110.175 156.9 138.05 159.975 151.9 161.425C154.975 161.75 157.375 162 158.675 162.125C159.4 162.2 159.8 162.225 159.8 162.225C159.8 162.225 163.425 162 167.85 161.75C171.925 161.525 181.3 161.575 184.525 161.45C185.75 161.4 186.175 159.8 185.1 159.175C183.175 158.075 175.15 154.825 171.2 154.35C168.775 154.05 166.1 151.875 163.975 150.675C162.325 149.725 160.5 151.375 159 151.9C158.275 152.15 157.75 153.775 156.925 153.85C156.725 153.875 156.525 153.875 156.325 153.9C155.3 153.95 154.25 153.9 153.225 153.775C152.95 153.75 152.675 153.7 152.4 153.65C149.175 153.15 146.5 152.15 146.5 152.15C136.625 147.075 114.9 133.525 98 137.1C97.85 137.125 97.725 137.15 97.6 137.2C97.475 137.225 97.325 137.275 97.2 137.3C80.2 141.525 92.475 152.5 102.625 155.025Z" fill="#FCD2B1"/>
<path d="M102.625 155.025C110.175 156.9 138.05 159.975 151.9 161.425L154.425 146.95C153.95 146.875 153.425 146.85 152.875 146.825C147.525 146.75 142.25 145.675 137.325 143.6C126.125 138.85 110.25 134.05 97.2 137.3C80.2 141.525 92.475 152.5 102.625 155.025Z" fill="black"/>
<path d="M163.15 151.025C163.15 149.575 164.9 148.725 164.9 148.725L178.425 153.675L185.8 157.65L187.25 159.675L185.5 160.975L170.4 158.825L165.475 155.95L163.15 151.025Z" fill="#0B4870"/>
<path d="M156.325 153.9L158.675 162.125C159.4 162.2 159.8 162.225 159.8 162.225C159.8 162.225 163.425 162 167.85 161.75C171.925 161.525 181.3 161.575 184.525 161.45C185.75 161.4 186.175 159.8 185.1 159.175C183.175 158.075 175.15 154.825 171.2 154.35C168.775 154.05 166.1 151.875 163.975 150.675C162.325 149.725 160.5 151.375 159 151.9C158.275 152.15 157.75 153.775 156.925 153.85C156.725 153.875 156.525 153.9 156.325 153.9Z" fill="#0E538C"/>
<path d="M179.375 151.875C170.425 153.75 137.95 159.95 121.5 161.425C117.85 161.75 115 162 113.45 162.125C112.575 162.2 112.1 162.225 112.1 162.225C112.1 162.225 107.8 162 102.525 161.75C97.7 161.525 86.525 161.575 82.7 161.45C81.225 161.4 80.75 159.8 82.025 159.175C84.325 158.075 93.85 154.825 98.55 154.35C101.45 154.05 104.6 151.875 107.125 150.675C109.075 149.725 111.25 151.375 113.05 151.9C113.925 152.15 114.525 153.775 115.5 153.85C115.75 153.875 115.975 153.875 116.225 153.9C117.45 153.95 118.7 153.9 119.9 153.775C120.225 153.75 120.575 153.7 120.9 153.65C124.725 153.15 127.9 152.15 127.9 152.15C139.625 147.075 165.45 133.525 185.5 137.1C185.675 137.125 185.825 137.15 186 137.2C186.15 137.225 186.325 137.275 186.5 137.3C206.675 141.525 191.425 149.35 179.375 151.875Z" fill="#FCD2B1"/>
<path d="M180.025 155.025C171.075 156.9 137.95 159.975 121.5 161.425L118.5 146.95C119.075 146.875 119.7 146.85 120.35 146.825C126.7 146.75 132.975 145.675 138.825 143.6C152.15 138.85 171 134.05 186.5 137.3C206.675 141.525 192.075 152.5 180.025 155.025Z" fill="black"/>
<path d="M108.125 151.025C108.125 149.575 106.05 148.725 106.05 148.725L89.975 153.675L81.225 157.65L79.5 159.675L81.575 160.975L99.525 158.825L105.4 155.95L108.125 151.025Z" fill="#0B4870"/>
<path d="M116.225 153.9L113.425 162.125C112.55 162.2 112.075 162.225 112.075 162.225C112.075 162.225 107.775 162 102.5 161.75C97.675 161.525 86.5 161.575 82.675 161.45C81.2 161.4 80.725 159.8 82 159.175C84.3 158.075 93.825 154.825 98.525 154.35C101.425 154.05 104.575 151.875 107.1 150.675C109.05 149.725 111.225 151.375 113.025 151.9C113.9 152.15 114.5 153.775 115.475 153.85C115.75 153.875 115.975 153.9 116.225 153.9Z" fill="#0E538C"/>
<path d="M171.5 125.1C171.5 125.75 171.5 126.4 171.475 127.05H105.95C105.925 126.4 105.925 125.75 105.925 125.1C105.925 100.85 116.75 80.525 131.3 75.275C133.675 74.425 136.45 83.25 139 83.25C141.425 83.25 143.5 74.375 145.775 75.15C160.5 80.2 171.5 100.65 171.5 125.1Z" fill="#7E879F"/>
<path d="M145.775 75.15L138.525 125.075L131.275 75.25C133.65 74.4 136.15 73.925 138.7 73.925C141.125 73.975 143.5 74.375 145.775 75.15Z" fill="white"/>
<path d="M142.625 78.8L138.625 84.55L134.6 78.8L133.7 67.275H143.55L142.625 78.8Z" fill="#FCD2B1"/>
<path d="M135.275 46.625C133.275 43.2 134.225 38.55 136.925 35.675C139.65 32.8 143.8 31.55 147.75 31.75C151.7 31.95 155.475 33.45 158.95 35.35C162.7 37.4 166.25 40.025 168.5 43.65C170.75 47.275 171.45 52.05 169.475 55.85C168.45 57.825 166.8 59.375 165.5 61.2C164.225 63.025 163.3 65.35 164.025 67.45C164.85 69.825 167.475 71.125 168.575 73.375C169.725 75.8 168.675 78.975 166.425 80.425C164.175 81.875 161.025 81.625 158.875 80.025C156.725 78.425 155.6 75.625 155.725 72.95C155.85 70.525 156.925 68.25 158.05 66.1C159.175 63.95 160.375 61.775 160.8 59.375C161.225 56.975 160.7 54.25 158.875 52.675C156.25 50.4 152.3 51.25 148.85 51.2C143.4 51.1 138.075 48.3 134.925 43.85" fill="black"/>
<path d="M125.05 56.45C125.05 48.275 131.1 42.875 138.55 42.875C146 42.875 152.05 48.275 152.05 56.45C152.05 64.625 146 71.225 138.55 71.225C131.1 71.225 125.05 64.6 125.05 56.45Z" fill="#303030"/>
<path d="M128.075 59.525C128.075 52.65 132.75 47.1 138.525 47.1C144.3 47.1 148.975 52.675 148.975 59.525C148.975 66.375 144.3 73.05 138.525 73.05C132.775 73.05 128.075 66.375 128.075 59.525Z" fill="#FFE3CA"/>
<path d="M132.575 51.175C137.65 56.275 144.275 58.725 150.65 57.85C149.85 52.925 147.375 48.45 143.95 46.025C140.525 43.6 136.175 43.325 132.65 45.525C129.125 47.725 126.575 52.375 126.3 57.4C129.175 57.725 132.05 54.75 132.4 51.05" fill="black"/>
<path d="M129.437 65.2604C130.275 64.8684 130.38 63.3239 129.672 61.8106C128.965 60.2974 127.711 59.3883 126.873 59.7803C126.036 60.1722 125.93 61.7168 126.638 63.23C127.346 64.7433 128.599 65.6523 129.437 65.2604Z" fill="#FFE3CA"/>
<path d="M150.605 63.2303C151.313 61.717 151.208 60.1725 150.37 59.7805C149.532 59.3886 148.279 60.2976 147.571 61.8109C146.863 63.3241 146.968 64.8686 147.806 65.2606C148.644 65.6526 149.897 64.7435 150.605 63.2303Z" fill="#FFE3CA"/>
<path d="M129.15 66.35C129.73 66.35 130.2 65.8799 130.2 65.3C130.2 64.7201 129.73 64.25 129.15 64.25C128.57 64.25 128.1 64.7201 128.1 65.3C128.1 65.8799 128.57 66.35 129.15 66.35Z" fill="#1B57A6"/>
<path d="M147.95 66.35C148.53 66.35 149 65.8799 149 65.3C149 64.7201 148.53 64.25 147.95 64.25C147.37 64.25 146.9 64.7201 146.9 65.3C146.9 65.8799 147.37 66.35 147.95 66.35Z" fill="#1B57A6"/>
<path d="M137.4 121.1C137.4 116.475 125.525 103.2 110.625 104.4C110.625 108.025 112.225 112.85 112.225 112.85L137.4 121.1Z" fill="#F2F2F2"/>
<path d="M138.6 120.5C136.575 116.875 126.725 105.2 106.6 105.4C106.6 110.225 108.625 112.85 108.625 112.85L138.6 120.5Z" fill="#F7F7F7"/>
<path d="M135.575 119.5C130.75 114.675 117.45 108.425 103.975 109.025C104.175 120.7 104.775 147.275 104.775 147.275C104.775 147.275 130.325 149.3 135.575 153.1C135.575 147.875 135.575 119.5 135.575 119.5Z" fill="#CCE9FF"/>
<path d="M139.8 121.1C139.8 116.475 151.675 103.2 166.575 104.4C166.575 108.025 164.975 112.85 164.975 112.85L139.8 121.1Z" fill="#F2F2F2"/>
<path d="M138.6 120.5C140.625 116.875 150.475 105.2 170.6 105.4C170.6 110.225 168.575 112.85 168.575 112.85L138.6 120.5Z" fill="#F7F7F7"/>
<path d="M141.625 119.5C146.45 114.675 159.75 108.425 173.225 109.025C173.025 120.7 172.425 147.275 172.425 147.275C172.425 147.275 146.875 149.3 141.625 153.1C141.625 147.875 141.625 119.5 141.625 119.5Z" fill="#CCE9FF"/>
<path d="M141.625 119.5H135.575V153.1H141.625V119.5Z" fill="#9FDAFF"/>
<path d="M139.825 119.5H137.4V153.1H139.825V119.5Z" fill="#85D6FF"/>
<path d="M102.975 119.5C102.975 119.5 100.35 127.35 101.175 128.35C102 129.35 108.225 133.975 108.225 133.975C108.225 133.975 108.825 126.925 106.625 124.725C104.375 122.5 102.975 119.5 102.975 119.5Z" fill="#FCD2B1"/>
<path d="M174.15 119.5C174.15 119.5 176.775 127.35 175.95 128.35C175.125 129.35 168.9 133.975 168.9 133.975C168.9 133.975 168.3 126.925 170.5 124.725C172.725 122.5 174.15 119.5 174.15 119.5Z" fill="#FCD2B1"/>
<path d="M239.275 246.5C244.75 246.5 247.05 242.125 247.975 237.5C249 232.275 248.25 226.7 248.25 226.7H230.325C230.325 226.7 230.3 226.9 230.25 227.3C229.9 230.575 228.825 246.5 239.275 246.5Z" fill="#B6E7FF"/>
<path d="M230.3 226.7C230.3 227.1 234.325 227.4 239.275 227.4C244.225 227.4 248.25 227.075 248.25 226.7C248.25 226.3 244.225 226 239.275 226C234.325 226 230.3 226.325 230.3 226.7Z" fill="#85DDFF"/>
<path d="M215 177C215 177 224.45 191.375 230.125 200.15C235.8 208.925 237.275 210.75 237.95 213.575C238.625 216.4 239.225 226.875 239.225 226.875H239.65C239.65 226.875 239.5 218 239 215C238.5 212.1 239.025 211.075 239.45 208.025C239.85 204.975 240.4 200.125 237.325 196.75C234.25 193.375 235.075 190.075 233.975 187.825C232.9 185.6 224.525 182.9 223.45 180.6C222.35 178.35 217.625 176.95 215 177Z" fill="#7E879F"/>
<path d="M215 177C215 177 217.975 180.375 220 181.525C222.025 182.675 222.975 181.65 224.525 184.425C226.075 187.2 226.15 188.4 227.55 189.825C228.975 191.25 230.65 191.3 230.8 194.425C230.925 197.525 230.125 200.175 230.125 200.175C230.125 200.175 215.6 177.75 215 177Z" fill="black"/>
<path d="M238.5 226.9H238.075C238.075 226.9 237.95 224.025 236.8 222.625C236.075 221.725 232.925 220.7 229.85 219.475C228.15 218.8 226.45 218.075 225.175 217.25C221.575 214.975 218.15 207.6 217.85 206.3C217.75 205.85 217.7 205.575 217.7 205.375C217.7 205.025 217.875 204.975 218.175 204.625C218.325 204.45 218.75 204.5 219.3 204.675C220.85 205.15 222.15 206.2 222.975 207.625C223.725 208.925 224.925 210.55 226.4 210.95C228.95 211.625 228.725 212.05 229.675 214.625C230.6 217.2 232.975 217.625 235.925 220.675C238.875 223.7 238.5 226.9 238.5 226.9Z" fill="black"/>
<path d="M229.85 219.475C228.15 218.8 226.45 218.075 225.175 217.25C221.575 214.975 218.15 207.6 217.85 206.3C217.75 205.85 217.7 205.575 217.7 205.375C217.7 205.45 217.875 206.625 219.75 207.4C221.7 208.2 222.075 208.2 222.325 209.425C222.575 210.65 222.8 211.975 223.8 212.225C224.825 212.475 225.45 211.325 226.25 213.2C227.05 215.05 227.45 215.7 228.175 215.95C228.925 216.2 229.475 215.825 229.65 217.25C229.75 218.15 229.8 218.975 229.85 219.475Z" fill="#7E879F"/>
<path d="M241.6 226.9H242.1C242.1 226.9 243.075 209.1 244.425 207.45C245.3 206.375 248.175 204.475 251.825 203.025C253.85 202.225 255.85 201.35 257.35 200.4C261.6 197.7 265.675 188.975 266.025 187.425C266.15 186.875 266.2 186.55 266.2 186.325C266.2 185.9 265.975 185.85 265.625 185.425C265.45 185.225 264.925 185.3 264.3 185.475C262.475 186.025 260.925 187.3 259.95 188.95C259.05 190.5 257.65 192.4 255.9 192.875C252.9 193.675 253.15 194.175 252.025 197.225C250.925 200.275 248.125 200.775 244.625 204.4C241.15 208 241.6 226.9 241.6 226.9Z" fill="black"/>
<path d="M251.85 203.025C253.875 202.225 255.875 201.35 257.375 200.4C261.625 197.7 265.7 188.975 266.05 187.425C266.175 186.875 266.225 186.55 266.225 186.325C266.225 186.425 266.025 187.8 263.8 188.725C261.5 189.675 261.05 189.675 260.75 191.125C260.45 192.575 260.2 194.125 259 194.425C257.8 194.725 257.05 193.375 256.1 195.575C255.15 197.775 254.7 198.525 253.825 198.825C252.95 199.125 252.275 198.675 252.1 200.375C251.95 201.425 251.875 202.4 251.85 203.025Z" fill="#7E879F"/>
<path d="M239.275 246.5C244.75 246.5 247.05 242.125 247.975 237.5C242.6 235.475 235.85 232.2 230.25 227.3C229.9 230.575 228.825 246.5 239.275 246.5Z" fill="#CCE9FF"/>
<path d="M34.975 247.175C39.475 247.175 41.375 243.575 42.125 239.75C42.975 235.45 42.35 230.85 42.35 230.85H27.6C27.6 230.85 27.575 231.025 27.55 231.325C27.25 234.05 26.375 247.175 34.975 247.175Z" fill="#B6E7FF"/>
<path d="M27.6 230.85C27.6 231.175 30.9 231.425 34.975 231.425C39.05 231.425 42.35 231.175 42.35 230.85C42.35 230.525 39.05 230.275 34.975 230.275C30.9 230.275 27.6 230.525 27.6 230.85Z" fill="#85DDFF"/>
<path d="M10.75 181.825C10.75 181.825 20.075 196 25.675 204.675C31.275 213.325 32.725 215.125 33.4 217.925C34.075 220.725 34.675 231.05 34.675 231.05H35.4C35.4 231.05 35.875 222.325 35 219.475C34.125 216.625 34.475 215.475 34.875 212.475C35.275 209.475 35.8 204.675 32.775 201.35C29.75 198.025 30.55 194.75 29.475 192.55C28.4 190.35 20.15 187.7 19.075 185.425C18.025 183.15 13.35 181.75 10.75 181.825Z" fill="#7E879F"/>
<path d="M12.8 181.825C12.8 181.825 15.725 185.15 17.725 186.275C19.725 187.4 20.65 186.4 22.175 189.15C23.7 191.875 23.775 193.075 25.175 194.475C26.575 195.875 28.25 195.95 28.375 199C28.5 202.075 27.7 204.65 27.7 204.65C27.7 204.65 13.4 182.55 12.8 181.825Z" fill="black"/>
<path d="M37.775 230.85L38.3 230.7C38.3 230.7 37.375 227.025 38.275 224.85C38.85 223.425 42.425 220.975 45.85 218.25C47.75 216.75 49.6 215.2 50.9 213.675C54.575 209.45 56.1 198.875 55.975 197.1C55.925 196.475 55.875 196.125 55.8 195.875C55.65 195.425 55.425 195.425 54.9 195.1C54.65 194.95 54.125 195.175 53.5 195.575C51.725 196.75 50.475 198.575 49.975 200.65C49.525 202.575 48.625 205.075 46.925 206.125C43.975 207.925 44.4 208.4 44.2 212C44 215.6 41.175 217.025 38.6 221.975C36.075 226.95 37.775 230.85 37.775 230.85Z" fill="black"/>
<path d="M45.875 218.25C47.775 216.75 49.625 215.2 50.925 213.675C54.6 209.45 56.125 198.875 56 197.1C55.95 196.475 55.9 196.125 55.825 195.875C55.85 196 56.075 197.525 54 199.2C51.85 200.95 51.375 201.1 51.525 202.725C51.675 204.375 51.9 206.1 50.7 206.8C49.525 207.5 48.275 206.3 47.975 208.95C47.675 211.6 47.425 212.55 46.575 213.15C45.75 213.75 44.9 213.475 45.225 215.35C45.475 216.525 45.7 217.575 45.875 218.25Z" fill="#7E879F"/>
<path d="M34.975 247.175C39.475 247.175 41.375 243.575 42.125 239.75C37.7 238.075 32.15 235.4 27.525 231.35C27.25 234.05 26.375 247.175 34.975 247.175Z" fill="#CCE9FF"/>
</svg>
