<svg width="209" height="209" viewBox="0 0 209 209" fill="none" xmlns="http://www.w3.org/2000/svg">
<path d="M88.6499 98.4864C99.5425 89.1624 101.943 74.0924 94.0115 64.8266C86.08 55.5609 70.8201 55.6081 59.9275 64.9321C49.0349 74.2561 46.6345 89.3261 54.5659 98.5919C62.4974 107.858 77.7573 107.81 88.6499 98.4864Z" stroke="#7E879F" stroke-opacity="0.05" stroke-width="8" stroke-linecap="round" stroke-linejoin="round"/>
<path d="M151.039 98.4823C161.931 89.1583 164.332 74.0883 156.4 64.8225C148.469 55.5567 133.209 55.6039 122.316 64.9279C111.424 74.2519 109.023 89.3219 116.955 98.5877C124.886 107.854 140.146 107.806 151.039 98.4823Z" stroke="#7E879F" stroke-opacity="0.05" stroke-width="8" stroke-linecap="round" stroke-linejoin="round"/>
<path d="M83.8099 147.921C83.8099 147.921 117.822 156.083 146.619 122.754" stroke="#7E879F" stroke-opacity="0.05" stroke-width="8" stroke-linecap="round" stroke-linejoin="round"/>
<path d="M176.344 23.948H32.6562C30.3466 23.948 28.1316 24.8655 26.4985 26.4986C24.8654 28.1317 23.9479 30.3467 23.9479 32.6563V176.344C23.9479 178.653 24.8654 180.868 26.4985 182.502C28.1316 184.135 30.3466 185.052 32.6562 185.052H176.344C178.653 185.052 180.868 184.135 182.501 182.502C184.135 180.868 185.052 178.653 185.052 176.344V32.6563C185.052 30.3467 184.135 28.1317 182.501 26.4986C180.868 24.8655 178.653 23.948 176.344 23.948Z" stroke="#7E879F" stroke-opacity="0.05" stroke-width="8" stroke-linecap="round" stroke-linejoin="round"/>
</svg>
