<svg width="190" height="53" viewBox="0 0 190 53" fill="none" xmlns="http://www.w3.org/2000/svg">
<path d="M183 26.5455C183 32.0971 191.148 36.8201 189.044 40.7145C186.955 44.6089 184.105 47.5836 180.492 49.6385C176.896 51.6769 172.853 52.696 168.362 52.696C163.838 52.696 159.777 51.6686 156.181 49.6137C152.585 47.5587 149.743 44.5841 147.655 40.6896C145.567 36.7952 144.523 32.0805 144.523 26.5455C144.523 20.9939 145.567 16.2708 147.655 12.3764C149.743 8.48202 152.585 5.51564 156.181 3.47729C159.777 1.42236 163.838 0.394897 168.362 0.394897C172.853 0.394897 176.896 1.42236 180.492 3.47729C184.105 5.51564 186.955 8.48202 189.044 12.3764C191.148 16.2708 183 20.9939 183 26.5455ZM181.288 26.5455C181.288 22.9493 180.749 19.9167 179.672 17.4475C178.611 14.9782 177.112 13.1056 175.173 11.8296C173.234 10.5535 170.964 9.9155 168.362 9.9155C165.76 9.9155 163.49 10.5535 161.551 11.8296C159.612 13.1056 158.104 14.9782 157.027 17.4475C155.966 19.9167 155.436 22.9493 155.436 26.5455C155.436 30.1416 155.966 33.1743 157.027 35.6435C158.104 38.1127 159.612 39.9853 161.551 41.2614C163.49 42.5374 165.76 43.1754 168.362 43.1754C170.964 43.1754 173.234 42.5374 175.173 41.2614C177.112 39.9853 178.611 38.1127 179.672 35.6435C180.749 33.1743 181.288 30.1416 181.288 26.5455Z" fill="black"/>
<path d="M126.256 17.5469C125.908 16.3371 125.419 15.2682 124.79 14.3402C124.16 13.3956 123.389 12.6002 122.478 11.9538C121.583 11.291 120.556 10.7855 119.396 10.4375C118.252 10.0895 116.984 9.9155 115.592 9.9155C112.99 9.9155 110.704 10.5618 108.731 11.8544C106.776 13.147 105.251 15.0279 104.158 17.4972C103.064 19.9498 102.517 22.9494 102.517 26.4958C102.517 30.0422 103.056 33.0583 104.133 35.544C105.21 38.0298 106.735 39.9273 108.707 41.2365C110.679 42.5291 113.007 43.1754 115.692 43.1754C118.128 43.1754 120.208 42.7446 121.931 41.8828C123.671 41.0045 124.997 39.7699 125.908 38.179C126.836 36.5881 127.3 34.7072 127.3 32.5362L129.488 32.8594H116.363V24.7557H137.666V31.169C137.666 35.6435 136.722 39.4882 134.832 42.7031C132.943 45.9015 130.341 48.3708 127.027 50.1108C123.713 51.8343 119.918 52.696 115.642 52.696C110.869 52.696 106.677 51.6437 103.064 49.5391C99.4512 47.4179 96.634 44.4101 94.6122 40.5156C92.607 36.6047 91.6044 31.9645 91.6044 26.5952C91.6044 22.4688 92.201 18.7898 93.3941 15.5583C94.6039 12.3101 96.2942 9.5592 98.4652 7.30541C100.636 5.05162 103.163 3.33642 106.047 2.15981C108.93 0.983203 112.054 0.394897 115.418 0.394897C118.302 0.394897 120.986 0.817484 123.472 1.66265C125.958 2.49125 128.162 3.66786 130.084 5.19248C132.023 6.7171 133.606 8.53173 134.832 10.6364C136.059 12.7244 136.846 15.0279 137.194 17.5469H126.256Z" fill="black"/>
<path d="M75 26.5455C75 32.0971 83.8071 36.8201 81.7024 40.7145C79.6143 44.6089 76.764 47.5836 73.1513 49.6385C69.5552 51.6769 65.5116 52.696 61.0206 52.696C56.4965 52.696 52.4363 51.6686 48.8402 49.6137C45.2441 47.5587 42.402 44.5841 40.3139 40.6896C38.2259 36.7952 37.1818 32.0805 37.1818 26.5455C37.1818 20.9939 38.2259 16.2708 40.3139 12.3764C42.402 8.48202 45.2441 5.51564 48.8402 3.47729C52.4363 1.42236 56.4965 0.394897 61.0206 0.394897C65.5116 0.394897 69.5552 1.42236 73.1513 3.47729C76.764 5.51564 79.6143 8.48202 81.7024 12.3764C83.8071 16.2708 75 20.9939 75 26.5455ZM73.9467 26.5455C73.9467 22.9493 73.4081 19.9167 72.331 17.4475C71.2704 14.9782 69.7706 13.1056 67.8317 11.8296C65.8928 10.5535 63.6224 9.9155 61.0206 9.9155C58.4188 9.9155 56.1484 10.5535 54.2095 11.8296C52.2706 13.1056 50.7626 14.9782 49.6854 17.4475C48.6248 19.9167 48.0945 22.9493 48.0945 26.5455C48.0945 30.1416 48.6248 33.1743 49.6854 35.6435C50.7626 38.1127 52.2706 39.9853 54.2095 41.2614C56.1484 42.5374 58.4188 43.1754 61.0206 43.1754C63.6224 43.1754 65.8928 42.5374 67.8317 41.2614C69.7706 39.9853 71.2704 38.1127 72.331 35.6435C73.4081 33.1743 73.9467 30.1416 73.9467 26.5455Z" fill="black"/>
<path d="M0.675659 52V1.09091H11.4392V43.1257H33.2644V52H0.675659Z" fill="black"/>
</svg>
