<svg width="30" height="30" viewBox="0 0 30 30" fill="none" xmlns="http://www.w3.org/2000/svg">
<rect width="30" height="30" rx="15" fill="black"/>
<g clip-path="url(#clip0_1_89)">
<path d="M22.049 11.6863L22.3384 11.2087C22.3384 11.2087 22.5932 10.7863 22.5932 10.219C22.5932 8.84484 21.282 8.88112 21.282 8.88112L18.4254 8.10347L16.867 6.5625L14.8164 7.12078L14.1439 6.93769L13.6329 7.44309L10.6806 8.24691C10.6806 8.24691 9.54433 8.21569 9.54433 9.4065C9.54433 9.89812 9.76539 10.2643 9.76539 10.2643L10.1454 10.8915L9.81152 11.2211L8.16339 11.67C8.16339 11.67 6.8522 11.6337 6.8522 13.0079C6.85482 13.3281 6.92972 13.6435 7.0713 13.9307L6.56252 14.4338L6.82942 14.5396C6.83533 14.5539 6.83758 14.57 6.84911 14.5815C7.3652 15.0987 7.32273 15.7934 7.24905 16.1686L6.93714 16.4811L9.29992 17.617L12.545 22.9734C13.065 23.7907 14.1689 23.2794 14.1689 23.2794L22.5077 19.2699L22.1958 18.9575C22.1221 18.5823 22.0796 17.8876 22.5957 17.3701C22.6073 17.3586 22.6095 17.3425 22.6154 17.3285L22.8823 17.2224L21.3318 15.6896L23.1121 14.8338L22.8418 14.5629C22.778 14.2378 22.7411 13.6357 23.1886 13.1873C23.1985 13.1772 23.2001 13.1637 23.2055 13.1511L23.4375 13.0591L22.049 11.6863ZM20.4501 9.20147L20.0985 9.75778L19.189 8.85834L20.4501 9.20147ZM17.0183 8.00925L18.3241 9.40509L13.6022 11.1114L12.487 9.38006L17.0183 8.00925ZM10.428 11.3584L13.6503 16.6771L7.51145 14.242L10.428 11.3584ZM9.08505 11.9397L8.70677 12.3138L8.55545 12.0817L9.08505 11.9397ZM7.89058 12.2305L8.2427 12.7725L7.47967 13.5268C7.41963 13.3603 7.38816 13.1849 7.38658 13.0079C7.38658 12.4943 7.64139 12.2989 7.89058 12.2305ZM7.44958 16.4136L7.4538 16.3972L14.5264 19.493L7.5092 16.1478C7.51567 16.1098 7.52073 16.0679 7.52608 16.0257L13.0197 18.3263L7.5452 15.7625C7.5466 15.6453 7.53851 15.5282 7.52102 15.4123L12.6057 17.5062L7.45267 15.1125C7.41959 15.0017 7.3753 14.8945 7.32048 14.7927L14.3188 17.781L14.478 18.0437C14.8062 18.5595 15.4016 18.4642 15.7017 18.3747C16.1166 18.5795 16.8602 19.0531 16.6698 19.7509C16.5694 20.1199 16.3486 20.2987 15.9951 20.2987C15.637 20.2987 15.2796 20.1114 15.2759 20.1089L7.44958 16.4136ZM14.4938 20.1145L13.9408 20.3435L13.4711 19.6226L14.4938 20.1145ZM12.3523 21.6279L10.1785 18.0395L12.3391 19.0781L13.3609 20.6509C12.9489 20.8269 12.4885 21.2288 12.3523 21.6279ZM21.9241 18.2012C21.9066 18.3171 21.8985 18.4342 21.8999 18.5513L16.4254 21.1152L21.919 18.8146C21.9244 18.8565 21.9292 18.8987 21.9359 18.9367L14.9187 22.2821L21.9913 19.1864C21.9929 19.1918 21.9943 19.1972 21.9955 19.2027L14.1692 22.8975C14.1655 22.9 13.8086 23.0873 13.45 23.0873C13.0962 23.0873 12.8757 22.9082 12.7753 22.5395C12.5171 21.5925 13.9853 21.0556 14.0072 21.0474L15.2939 20.4984C15.432 20.5572 16.4172 20.9439 16.9001 20.1848L17.2047 19.6825L22.1249 17.5816C22.0701 17.6835 22.0258 17.7906 21.9925 17.9014L16.8394 20.2951L21.9241 18.2012ZM21.9337 17.0309L17.7641 18.7589L18.9212 16.8489L20.8244 15.934L21.9337 17.0309ZM22.6067 13.9071C22.5917 14.0075 22.5847 14.109 22.5856 14.2105L17.8415 16.4324L22.6025 14.4386C22.6073 14.4749 22.6112 14.5117 22.6171 14.5444L16.5354 17.4435L22.6649 14.7607C22.6664 14.7653 22.6676 14.77 22.6686 14.7747L15.8857 17.9773C15.8826 17.9793 15.5729 18.1418 15.2624 18.1418C14.9556 18.1418 14.7646 17.9863 14.6777 17.6668C14.4538 16.8461 15.7262 16.3809 15.7453 16.3739L22.7805 13.3702C22.7331 13.4585 22.6947 13.5514 22.666 13.6475L18.1998 15.722L22.6067 13.9071Z" fill="white"/>
</g>
<defs>
<clipPath id="clip0_1_89">
<rect width="18" height="18" fill="white" transform="translate(6.00002 6)"/>
</clipPath>
</defs>
</svg>
