<svg width="22" height="22" viewBox="0 0 22 22" fill="none" xmlns="http://www.w3.org/2000/svg">
<g clip-path="url(#clip0_0_42)">
<path d="M19.6154 6.94994L19.9691 6.36625C19.9691 6.36625 20.2806 5.84994 20.2806 5.15659C20.2806 3.47703 18.678 3.52138 18.678 3.52138L15.1865 2.57091L13.2818 0.6875L10.7755 1.36984L9.95362 1.14606L9.32903 1.76378L5.72069 2.74622C5.72069 2.74622 4.33194 2.70806 4.33194 4.1635C4.33194 4.76438 4.60212 5.21194 4.60212 5.21194L5.06653 5.9785L4.6585 6.38137L2.64412 6.93C2.64412 6.93 1.04156 6.88566 1.04156 8.56522C1.04477 8.95653 1.1363 9.34207 1.30934 9.69306L0.6875 10.308L1.01372 10.4373C1.02094 10.4548 1.02369 10.4744 1.03778 10.4885C1.66856 11.1207 1.61666 11.9697 1.52659 12.4283L1.14537 12.8102L4.03322 14.1986L7.99941 20.7453C8.635 21.7442 9.98422 21.1193 9.98422 21.1193L20.1761 16.2188L19.7948 15.8369C19.7048 15.3783 19.6529 14.5293 20.2837 13.8968C20.2977 13.8827 20.3005 13.8631 20.3077 13.8459L20.6339 13.7163L18.7388 11.8429L20.9148 10.7968L20.5844 10.4658C20.5064 10.0684 20.4614 9.33247 21.0083 8.78453C21.0203 8.77216 21.0224 8.75566 21.0289 8.74019L21.3125 8.62778L19.6154 6.94994ZM17.6612 3.91291L17.2315 4.59284L16.1198 3.49353L17.6612 3.91291ZM13.4667 2.45575L15.0628 4.16178L9.29156 6.24731L7.92859 4.13119L13.4667 2.45575ZM5.412 6.54913L9.35034 13.0498L1.84731 10.0736L5.412 6.54913ZM3.77059 7.25966L3.30825 7.71684L3.12331 7.43325L3.77059 7.25966ZM2.31069 7.61509L2.74106 8.2775L1.80847 9.19944C1.73509 8.99595 1.69662 8.78152 1.69469 8.56522C1.69469 7.93753 2.00612 7.69863 2.31069 7.61509ZM1.77169 12.7277L1.77684 12.7077L10.4211 16.4914L1.84456 12.4028C1.85247 12.3564 1.85866 12.3052 1.86519 12.2537L8.57966 15.0655L1.88856 11.9319C1.89027 11.7887 1.88038 11.6456 1.859 11.5039L8.07366 14.0632L1.77547 11.1375C1.73504 11.0021 1.68091 10.8711 1.61391 10.7467L10.1674 14.399L10.362 14.7201C10.7632 15.3505 11.4909 15.234 11.8577 15.1247C12.3647 15.3749 13.2736 15.9538 13.0408 16.8066C12.9181 17.2576 12.6483 17.4762 12.2162 17.4762C11.7786 17.4762 11.3417 17.2473 11.3372 17.2442L1.77169 12.7277ZM10.3812 17.2511L9.70544 17.5309L9.13137 16.6499L10.3812 17.2511ZM7.76394 19.1008L5.10709 14.7149L7.74778 15.9844L8.99662 17.9066C8.49303 18.1218 7.93031 18.613 7.76394 19.1008ZM19.4628 14.9126C19.4414 15.0542 19.4315 15.1973 19.4332 15.3405L12.7421 18.4742L19.4566 15.6623C19.4631 15.7135 19.469 15.7651 19.4772 15.8115L10.9007 19.9004L19.5449 16.1167C19.5469 16.1233 19.5486 16.13 19.5501 16.1367L9.98456 20.6525C9.98009 20.6556 9.54387 20.8845 9.10559 20.8845C8.67316 20.8845 8.40366 20.6656 8.28094 20.2149C7.96537 19.0575 9.75975 18.4013 9.78656 18.3913L11.3592 17.7203C11.528 17.7922 12.7322 18.2648 13.3224 17.337L13.6947 16.7231L19.7082 14.1553C19.6413 14.2798 19.587 14.4107 19.5463 14.5461L13.2481 17.4718L19.4628 14.9126ZM19.4745 13.4822L14.3784 15.5942L15.7926 13.2598L18.1187 12.1416L19.4745 13.4822ZM20.2971 9.66419C20.2788 9.78696 20.2702 9.91097 20.2713 10.0351L14.4729 12.7507L20.2919 10.3139C20.2977 10.3582 20.3026 10.4032 20.3098 10.4431L12.8765 13.9865L20.3682 10.7075C20.37 10.7131 20.3715 10.7188 20.3727 10.7247L12.0825 14.6389C12.0787 14.6413 11.7002 14.84 11.3207 14.84C10.9457 14.84 10.7123 14.6499 10.6061 14.2594C10.3324 13.2564 11.8876 12.6878 11.9109 12.6792L20.5095 9.00797C20.4515 9.11592 20.4046 9.22948 20.3696 9.34691L14.9108 11.8824L20.2971 9.66419Z" fill="black"/>
</g>
<defs>
<clipPath id="clip0_0_42">
<rect width="22" height="22" fill="white"/>
</clipPath>
</defs>
</svg>
