<svg width="18" height="14" viewBox="0 0 18 14" fill="none" xmlns="http://www.w3.org/2000/svg">
<path d="M17.1979 7.2081V7.21819V7.22735V7.23285V7.24569C17.1605 7.35415 17.0988 7.45284 17.0176 7.53444L10.9162 13.6486C10.8465 13.7218 10.7624 13.7801 10.6692 13.82C10.576 13.8599 10.4755 13.8806 10.374 13.8808C10.2724 13.881 10.1719 13.8606 10.0785 13.821C9.98516 13.7814 9.90091 13.7234 9.83091 13.6504C9.7028 13.5203 9.62535 13.3493 9.61232 13.1679C9.59929 12.9865 9.65151 12.8064 9.75972 12.6595L9.83091 12.5752L14.6381 7.76085L1.34254 7.76085C1.1494 7.75843 0.964271 7.68395 0.824025 7.55225C0.68378 7.42055 0.598714 7.2413 0.585773 7.0502C0.572831 6.8591 0.632964 6.67018 0.754193 6.52107C0.875422 6.37196 1.04885 6.27361 1.23993 6.2456L1.34254 6.23919L14.6381 6.23919L9.83091 1.42577C9.68868 1.28199 9.60901 1.08863 9.60901 0.887227C9.60901 0.685828 9.68868 0.492466 9.83091 0.348686C9.95767 0.219551 10.1275 0.140606 10.3087 0.126604C10.4899 0.112601 10.67 0.164501 10.8155 0.272602L10.9005 0.345936L17.0019 6.45919C17.1461 6.60287 17.2268 6.79736 17.2266 7.00002C17.2266 7.07035 17.217 7.14036 17.1979 7.2081Z" fill="black"/>
</svg>
