<svg width="30" height="30" viewBox="0 0 30 30" fill="none" xmlns="http://www.w3.org/2000/svg">
<rect width="30" height="30" rx="15" fill="black"/>
<g clip-path="url(#clip0_0_57)">
<path opacity="0.8" d="M18.1563 7.06496C18.8999 7.06496 19.6435 7.06496 20.3871 7.06496C20.8089 7.06496 21.2307 7.06054 21.652 7.06806C21.9571 7.07336 22.1716 7.28874 22.1729 7.59523C22.1773 8.62481 22.1751 9.65439 22.1746 10.684C22.1746 10.7052 22.1694 10.7264 22.1627 10.7786C20.8076 9.54073 19.4727 8.32142 18.1374 7.10167C18.1435 7.08928 18.1501 7.07734 18.1563 7.06496Z" fill="white"/>
<path d="M23.4611 13.4152C20.8776 11.0557 18.2981 8.69227 15.7177 6.32972C15.3359 5.97989 14.9498 5.90559 14.5655 6.11832C14.4695 6.17139 14.381 6.24348 14.2991 6.31778C11.6654 8.72677 9.0326 11.1366 6.40023 13.5465C6.00751 13.9061 5.90096 14.3032 6.09336 14.7106C6.23689 15.0153 6.47728 15.2094 6.81276 15.2311C7.198 15.2563 7.58544 15.2452 7.97155 15.2497C8.0464 15.2506 8.12124 15.2497 8.21634 15.2497V15.473C8.21634 16.6043 8.21634 17.7352 8.21634 18.8665C8.21634 18.8846 8.21502 18.9023 8.21502 18.9204V20.0031C8.21502 21.3064 9.26683 22.363 10.5643 22.363H19.4181C20.7156 22.363 21.7674 21.3064 21.7674 20.0031V19.9739H21.7859C21.7859 18.4742 21.7859 16.9745 21.7859 15.4752V15.2497C22.1958 15.2497 22.5868 15.2488 22.9777 15.2497C23.2304 15.2501 23.4853 15.2192 23.6593 15.0263C23.7997 14.8707 23.8882 14.6681 24 14.4863V14.1334C23.9032 13.8313 23.6883 13.623 23.4611 13.4152Z" fill="white"/>
</g>
<defs>
<clipPath id="clip0_0_57">
<rect width="18" height="17.1818" fill="white" transform="translate(6 6)"/>
</clipPath>
</defs>
</svg>
