<svg width="20" height="20" viewBox="0 0 20 20" fill="none" xmlns="http://www.w3.org/2000/svg">
<g clip-path="url(#clip0_1_105)">
<path opacity="0.8" d="M13.507 1.18329C14.3332 1.18329 15.1595 1.18329 15.9857 1.18329C16.4544 1.18329 16.923 1.17838 17.3912 1.18673C17.7302 1.19263 17.9684 1.43194 17.9699 1.77248C17.9748 2.91646 17.9723 4.06044 17.9718 5.20442C17.9718 5.22801 17.9659 5.2516 17.9586 5.30958C16.4529 3.93415 14.9697 2.57936 13.486 1.22408C13.4928 1.21032 13.5001 1.19705 13.507 1.18329Z" fill="black"/>
<path d="M19.4013 8.23908C16.5307 5.61746 13.6645 2.99141 10.7974 0.366351C10.3733 -0.0223467 9.94425 -0.104902 9.51719 0.131462C9.41055 0.19043 9.31222 0.270528 9.22123 0.353083C6.2949 3.02974 3.36955 5.70738 0.444692 8.38503C0.00833532 8.78453 -0.110048 9.22581 0.103727 9.67839C0.263203 10.017 0.5303 10.2327 0.903062 10.2568C1.3311 10.2848 1.76159 10.2725 2.19061 10.2774C2.27377 10.2784 2.35693 10.2774 2.4626 10.2774V10.5256C2.4626 11.7826 2.4626 13.0391 2.4626 14.2961C2.4626 14.3162 2.46113 14.3359 2.46113 14.356V15.559C2.46113 17.0071 3.6298 18.1811 5.07144 18.1811H14.909C16.3507 18.1811 17.5193 17.0071 17.5193 15.559V15.5265H17.5399C17.5399 13.8602 17.5399 12.1939 17.5399 10.528V10.2774C17.9953 10.2774 18.4297 10.2764 18.8641 10.2774C19.1449 10.2779 19.4282 10.2435 19.6214 10.0293C19.7774 9.85628 19.8758 9.63122 20 9.42925V9.03711C19.8924 8.70149 19.6537 8.47004 19.4013 8.23908Z" fill="black"/>
</g>
<defs>
<clipPath id="clip0_1_105">
<rect width="20" height="19.0909" fill="white"/>
</clipPath>
</defs>
</svg>
