<svg width="50" height="50" viewBox="0 0 50 50" fill="none" xmlns="http://www.w3.org/2000/svg">
<g clip-path="url(#clip0_5_156)">
<path d="M35.8333 16.6667H34.1666C33.7066 16.6667 33.3333 17.04 33.3333 17.5C33.3333 17.9599 33.7066 18.3333 34.1666 18.3333H35.8333C36.2933 18.3333 36.6666 17.9599 36.6666 17.5C36.6666 17.04 36.2934 16.6667 35.8333 16.6667Z" fill="black"/>
<path d="M35.8333 20H34.1666C33.7066 20 33.3333 20.3733 33.3333 20.8333C33.3333 21.2933 33.7066 21.6666 34.1666 21.6666H35.8333C36.2933 21.6666 36.6666 21.2933 36.6666 20.8333C36.6667 20.3733 36.2934 20 35.8333 20Z" fill="black"/>
<path d="M35.8333 13.3333H34.1666C33.7066 13.3333 33.3333 13.7067 33.3333 14.1666C33.3333 14.6266 33.7066 14.9999 34.1666 14.9999H35.8333C36.2933 14.9999 36.6666 14.6266 36.6666 14.1666C36.6667 13.7067 36.2934 13.3333 35.8333 13.3333Z" fill="black"/>
<path d="M35.8333 40H34.1666C33.7066 40 33.3333 40.3733 33.3333 40.8333C33.3333 41.2933 33.7066 41.6666 34.1666 41.6666H35.8333C36.2933 41.6666 36.6666 41.2933 36.6666 40.8333C36.6666 40.3733 36.2934 40 35.8333 40Z" fill="black"/>
<path d="M17.5 13.3333H12.5C12.04 13.3333 11.6667 13.7067 11.6667 14.1666V25.8333C11.6667 26.2933 12.04 26.6666 12.5 26.6666H17.5C17.96 26.6666 18.3333 26.2933 18.3333 25.8333V14.1667C18.3333 13.7067 17.96 13.3333 17.5 13.3333ZM16.6667 25H13.3334V15H16.6667V25Z" fill="black"/>
<path d="M17.5 40H12.5C12.04 40 11.6667 40.3733 11.6667 40.8333C11.6667 41.2933 12.04 41.6666 12.5 41.6666H17.5C17.96 41.6666 18.3333 41.2933 18.3333 40.8333C18.3333 40.3733 17.96 40 17.5 40Z" fill="black"/>
<path d="M17.5 43.3333H12.5C12.04 43.3333 11.6667 43.7067 11.6667 44.1666C11.6667 44.6266 12.04 44.9999 12.5 44.9999H17.5C17.96 44.9999 18.3333 44.6266 18.3333 44.1666C18.3333 43.7067 17.96 43.3333 17.5 43.3333Z" fill="black"/>
<path d="M35.8333 43.3333H34.1666C33.7066 43.3333 33.3333 43.7067 33.3333 44.1666C33.3333 44.6266 33.7066 44.9999 34.1666 44.9999H35.8333C36.2933 44.9999 36.6666 44.6266 36.6666 44.1666C36.6667 43.7067 36.2934 43.3333 35.8333 43.3333Z" fill="black"/>
<path d="M45.8333 43.3333H42.5C42.04 43.3333 41.6667 43.7067 41.6667 44.1666C41.6667 44.6266 42.04 44.9999 42.5 44.9999H45.8333C46.2933 44.9999 46.6666 44.6266 46.6666 44.1666C46.6667 43.7067 46.2934 43.3333 45.8333 43.3333Z" fill="#7E879F"/>
<path d="M28.3333 14.1667C28.3333 13.7067 27.96 13.3334 27.5 13.3334H24.1667C23.7067 13.3334 23.3334 13.7067 23.3334 14.1667V25.8334C23.3334 26.2933 23.7067 26.6667 24.1667 26.6667H27.5C27.96 26.6667 28.3333 26.2933 28.3333 25.8334V14.1667ZM26.6667 25H25V15H26.6667V25Z" fill="#7E879F"/>
<path d="M45.8333 40H42.5C42.04 40 41.6667 40.3733 41.6667 40.8333C41.6667 41.2933 42.04 41.6666 42.5 41.6666H45.8333C46.2933 41.6666 46.6666 41.2933 46.6666 40.8333C46.6666 40.3733 46.2934 40 45.8333 40Z" fill="#7E879F"/>
<path d="M27.5 43.3333H24.1667C23.7067 43.3333 23.3334 43.7067 23.3334 44.1666C23.3334 44.6266 23.7067 44.9999 24.1667 44.9999H27.5C27.96 44.9999 28.3333 44.6266 28.3333 44.1666C28.3333 43.7067 27.96 43.3333 27.5 43.3333Z" fill="#7E879F"/>
<path d="M42.5 30C42.96 30 43.3333 29.6267 43.3333 29.1667V20.8334C43.3333 20.3735 42.96 20.0001 42.5 20.0001C42.04 20.0001 41.6667 20.3735 41.6667 20.8334V29.1667C41.6667 29.6267 42.04 30 42.5 30Z" fill="#7E879F"/>
<path d="M46.6667 20.8333C46.6667 20.3733 46.2934 20 45.8334 20C45.3734 20 45.0001 20.3733 45.0001 20.8333V29.1666C45.0001 29.6266 45.3734 29.9999 45.8334 29.9999C46.2934 29.9999 46.6667 29.6266 46.6667 29.1666V20.8333Z" fill="#7E879F"/>
<path d="M47.5 6.6667H42.5C42.04 6.6667 41.6667 7.04004 41.6667 7.5C41.6667 7.95996 42.04 8.3333 42.5 8.3333H47.5C47.9592 8.3333 48.3333 8.70742 48.3333 9.1666V47.5C48.3333 47.9592 47.9592 48.3333 47.5 48.3333H40V13.3333H45C45.46 13.3333 45.8333 12.96 45.8333 12.5C45.8333 12.04 45.46 11.6667 45 11.6667H40V4.1667C40 2.76504 38.9017 1.6667 37.5 1.6667H32.5C31.1217 1.6667 30 2.78838 30 4.1667V48.3334H21.6667V5H27.5C27.96 5 28.3333 4.62666 28.3333 4.1667C28.3333 3.70674 27.96 3.3334 27.5 3.3334H21.6667V2.5C21.6667 1.09834 20.5684 0 19.1667 0H10.8334C9.45508 0 8.3334 1.12168 8.3334 2.5V10H4.1667C3.70674 10 3.3334 10.3733 3.3334 10.8333C3.3334 11.2933 3.70674 11.6666 4.1667 11.6666H8.3334V48.3333H2.5C2.04082 48.3333 1.6667 47.9592 1.6667 47.5V7.5C1.6667 7.04082 2.04082 6.6667 2.5 6.6667H5.8333C6.29326 6.6667 6.6666 6.29336 6.6666 5.8334C6.6666 5.37344 6.29336 5 5.8333 5H2.5C1.12168 5 0 6.12168 0 7.5V47.5C0 48.8783 1.12168 50 2.5 50H47.5C48.8783 50 50 48.8783 50 47.5V9.1667C50 7.78838 48.8783 6.6667 47.5 6.6667ZM20 48.3333H10V6.6667H17.5C17.96 6.6667 18.3333 6.29336 18.3333 5.8334C18.3333 5.37344 17.96 5 17.5 5H10V2.5C10 2.03252 10.3658 1.6667 10.8333 1.6667H19.1666C19.6416 1.6667 19.9999 2.025 19.9999 2.5L20 48.3333ZM38.3333 48.3333H31.6666V8.3333H35.8333C36.2933 8.3333 36.6666 7.95996 36.6666 7.5C36.6666 7.04004 36.2933 6.6667 35.8333 6.6667H31.6666V4.1667C31.6666 3.69922 32.0324 3.3334 32.4999 3.3334H37.5C37.975 3.3334 38.3333 3.6917 38.3333 4.1667V48.3333Z" fill="black"/>
<path d="M5.8333 40H4.1667C3.70674 40 3.3334 40.3733 3.3334 40.8333C3.3334 41.2933 3.70674 41.6666 4.1667 41.6666H5.8334C6.29336 41.6666 6.6667 41.2933 6.6667 40.8333C6.6667 40.3733 6.29336 40 5.8333 40Z" fill="#7E879F"/>
<path d="M5.8333 43.3333H4.1667C3.70674 43.3333 3.3334 43.7067 3.3334 44.1666C3.3334 44.6266 3.70674 44.9999 4.1667 44.9999H5.8334C6.29336 44.9999 6.6667 44.6266 6.6667 44.1666C6.6667 43.7067 6.29336 43.3333 5.8333 43.3333Z" fill="#7E879F"/>
<path d="M27.5 40H24.1667C23.7067 40 23.3334 40.3733 23.3334 40.8333C23.3334 41.2933 23.7067 41.6666 24.1667 41.6666H27.5C27.96 41.6666 28.3333 41.2933 28.3333 40.8333C28.3333 40.3733 27.96 40 27.5 40Z" fill="#7E879F"/>
<path d="M5.8333 20H4.1667C3.70674 20 3.3334 20.3733 3.3334 20.8333C3.3334 21.2933 3.70674 21.6666 4.1667 21.6666H5.8334C6.29336 21.6666 6.6667 21.2933 6.6667 20.8333C6.6667 20.3733 6.29336 20 5.8333 20Z" fill="#7E879F"/>
<path d="M5.8333 23.3333H4.1667C3.70674 23.3333 3.3334 23.7067 3.3334 24.1666C3.3334 24.6266 3.70664 25 4.1667 25H5.8334C6.29336 25 6.6667 24.6267 6.6667 24.1667C6.6667 23.7068 6.29336 23.3333 5.8333 23.3333Z" fill="#7E879F"/>
</g>
<defs>
<clipPath id="clip0_5_156">
<rect width="50" height="50" fill="white"/>
</clipPath>
</defs>
</svg>
