<svg width="42" height="42" viewBox="0 0 42 42" fill="none" xmlns="http://www.w3.org/2000/svg">
<path opacity="0.5" d="M41.8334 20.8333C41.8334 32.3392 32.5059 41.6667 21 41.6667C9.49408 41.6667 0.166687 32.3392 0.166687 20.8333C0.166687 9.3274 9.49408 0 21 0C32.5059 0 41.8334 9.3274 41.8334 20.8333Z" fill="#7E879F" fill-opacity="0.5"/>
<path d="M31.0146 35.44C28.1663 37.3966 24.7169 38.5416 21 38.5416C17.2831 38.5416 13.8338 37.3964 10.9854 35.4398C9.72741 34.5756 9.18979 32.9296 9.92125 31.59C11.4375 28.8129 14.562 27.0833 21 27.0833C27.4381 27.0833 30.5625 28.8131 32.0788 31.59C32.8102 32.9296 32.2725 34.5758 31.0146 35.44Z" fill="black"/>
<path d="M21 20.8333C24.4519 20.8333 27.25 18.0352 27.25 14.5833C27.25 11.1315 24.4519 8.33331 21 8.33331C17.5483 8.33331 14.7501 11.1315 14.7501 14.5833C14.7501 18.0352 17.5483 20.8333 21 20.8333Z" fill="black"/>
</svg>
