<svg width="21" height="20" viewBox="0 0 21 20" fill="none" xmlns="http://www.w3.org/2000/svg">
<path d="M17.9731 18.2158L17.9028 18.1575L15.2514 15.6158C13.7998 16.7323 12.0087 17.3368 10.1657 17.3325C8.03007 17.3527 5.97342 16.5396 4.44664 15.0713C2.91985 13.6031 2.04754 11.5996 2.02094 9.49999C2.04731 7.39998 2.91977 5.39597 4.44694 3.9275C5.97411 2.45903 8.03133 1.64597 10.1674 1.66665C12.3036 1.64575 14.3611 2.45871 15.8884 3.9272C17.4158 5.3957 18.2883 7.39983 18.3147 9.49999C18.3129 11.4682 17.5453 13.3612 16.1694 14.7908L18.7894 17.3025C18.8475 17.3579 18.8937 17.4242 18.9253 17.4975C18.9569 17.5708 18.9731 17.6496 18.9731 17.7292C18.9731 17.8087 18.9569 17.8875 18.9253 17.9608C18.8937 18.0341 18.8475 18.1004 18.7894 18.1558C18.6819 18.2584 18.5411 18.3205 18.3918 18.3313C18.2424 18.3421 18.0939 18.301 17.9723 18.215L17.9731 18.2158ZM3.27541 9.49999C3.29777 11.2766 4.03589 12.9719 5.3279 14.2142C6.61991 15.4564 8.36032 16.1442 10.1674 16.1267C11.9746 16.1444 13.7153 15.4568 15.0075 14.2145C16.2996 12.9722 17.0379 11.2767 17.0602 9.49999C17.0379 7.72326 16.2996 6.02779 15.0075 4.7855C13.7153 3.54321 11.9746 2.85553 10.1674 2.87332C8.36032 2.85575 6.61991 3.54353 5.3279 4.7858C4.03589 6.02806 3.29777 7.72341 3.27541 9.49999Z" fill="#7E879F"/>
</svg>
