<svg width="14" height="15" viewBox="0 0 14 15" fill="none" xmlns="http://www.w3.org/2000/svg">
<path fill-rule="evenodd" clip-rule="evenodd" d="M8.35225 2.5C8.35225 1.11928 9.47665 0 10.8636 0C12.2506 0 13.375 1.11928 13.375 2.5C13.375 3.88071 12.2506 5 10.8636 5C10.1633 5 9.53035 4.71447 9.07533 4.2551L5.59877 6.62212C5.63087 6.78187 5.64775 6.94687 5.64775 7.1154C5.64775 7.44915 5.58175 7.7682 5.46219 8.0598L9.27422 10.5643C9.7069 10.2121 10.2605 9.99997 10.8636 9.99997C12.2506 9.99997 13.375 11.1193 13.375 12.5C13.375 13.8807 12.2506 15 10.8636 15C9.47665 15 8.35225 13.8807 8.35225 12.5C8.35225 12.1384 8.42965 11.7941 8.56877 11.4833L4.78755 8.99902C4.34647 9.38235 3.7687 9.61537 3.13636 9.61537C1.74938 9.61537 0.625 8.49607 0.625 7.1154C0.625 5.73467 1.74938 4.61539 3.13636 4.61539C3.93392 4.61539 4.6439 4.98544 5.10359 5.56138L8.47292 3.26731C8.39455 3.02519 8.35225 2.7672 8.35225 2.5Z" fill="black"/>
</svg>
